<?xml version="1.0" standalone="no"?><!-- Generator: Gravit.io --><svg xmlns="http://www.w3.org/2000/svg" xmlns:xlink="http://www.w3.org/1999/xlink" style="isolation:isolate" viewBox="0 0 59.465 59.465" width="59.465" height="59.465"><g><g><path d=" M 58.862 33.886 L 45.045 20.069 L 45.045 10.957 C 45.045 9.821 44.124 8.901 42.989 8.901 C 41.852 8.901 40.932 9.821 40.932 10.957 L 40.932 15.958 L 31.185 6.21 C 30.384 5.407 29.081 5.407 28.28 6.21 L 0.603 33.886 C -0.2 34.69 -0.2 35.99 0.603 36.793 C 1.405 37.596 2.707 37.596 3.51 36.793 L 29.732 10.57 L 55.955 36.793 C 56.356 37.191 56.885 37.397 57.41 37.397 C 57.932 37.397 58.461 37.196 58.862 36.793 C 59.665 35.988 59.665 34.689 58.862 33.886 Z " fill="rgb(255,255,255)" vector-effect="non-scaling-stroke" stroke-width="1" stroke="rgb(255,255,255)" stroke-linejoin="miter" stroke-linecap="butt" stroke-miterlimit="4"/><path d=" M 52.979 36.245 L 31.185 14.449 C 30.8 14.064 30.277 13.847 29.731 13.847 C 29.186 13.847 28.663 14.064 28.278 14.449 L 6.484 36.245 C 6.193 36.533 5.997 36.904 5.919 37.307 C 5.858 37.621 5.828 37.94 5.828 38.249 L 5.828 48.887 C 5.828 51.626 8.057 53.858 10.797 53.858 L 21.435 53.858 C 22.813 53.858 24.142 53.276 25.08 52.259 C 25.934 51.336 26.404 50.139 26.404 48.886 L 26.404 41.074 C 26.404 39.178 27.857 37.594 29.734 37.416 C 31.612 37.594 33.065 39.178 33.065 41.074 L 33.065 48.886 C 33.065 50.138 33.537 51.336 34.389 52.259 C 35.327 53.276 36.658 53.858 38.035 53.858 L 48.673 53.858 C 51.413 53.858 53.644 51.629 53.644 48.886 L 53.644 38.252 C 53.644 37.94 53.613 37.622 53.552 37.311 C 53.471 36.904 53.271 36.533 52.979 36.245 Z " fill="rgb(255,255,255)" vector-effect="non-scaling-stroke" stroke-width="1" stroke="rgb(255,255,255)" stroke-linejoin="miter" stroke-linecap="butt" stroke-miterlimit="4"/></g></g></svg>