<?xml version="1.0" standalone="no"?><!-- Generator: Gravit.io --><svg xmlns="http://www.w3.org/2000/svg" xmlns:xlink="http://www.w3.org/1999/xlink" style="isolation:isolate" viewBox="0 0 400 400" width="400" height="400"><g><g><path d=" M 400 199.818 C 399.901 89.541 310.101 -0.099 199.821 0 C 89.541 0.099 -0.099 89.899 0 200.176 C 0.099 310.458 89.899 400.099 200.179 400 C 310.459 399.901 400.099 310.1 400 199.818 Z  M 26.23 200.153 C 26.144 104.342 104.027 26.317 199.844 26.231 C 295.661 26.145 373.684 104.03 373.77 199.841 C 373.856 295.665 295.973 373.683 200.156 373.769 C 104.34 373.856 26.316 295.976 26.23 200.153 Z " fill="rgb(255,255,255)"/><path d=" M 290.186 241.478 C 295.306 236.351 295.298 228.044 290.17 222.931 L 209.224 142.129 C 206.763 139.671 203.425 138.291 199.948 138.294 C 196.47 138.297 193.136 139.683 190.679 142.145 L 109.877 223.093 C 107.317 225.657 106.038 229.014 106.041 232.369 C 106.044 235.723 107.328 239.087 109.893 241.638 C 115.017 246.756 123.324 246.749 128.438 241.621 L 199.978 169.96 L 271.642 241.493 C 276.765 246.613 285.071 246.606 290.186 241.478 Z " fill="rgb(255,255,255)"/></g></g></svg>